<?xml version="1.0" encoding="utf-8"?>
<!-- Generator: Adobe Illustrator 19.2.1, SVG Export Plug-In . SVG Version: 6.00 Build 0)  -->
<svg version="1.1" id="Layer_1" xmlns="http://www.w3.org/2000/svg" xmlns:xlink="http://www.w3.org/1999/xlink" x="0px" y="0px"
	 viewBox="0 0 100 100" style="enable-background:new 0 0 100 100;" xml:space="preserve">
<style type="text/css">
	.st0{fill:#FFFFFF;}
</style>
<g>
	<path class="st0" d="M100,80.5c0,2.2-0.8,4.2-2.4,5.7L86.2,97.6c-1.6,1.6-3.5,2.4-5.7,2.4c-2.2,0-4.1-0.8-5.7-2.4L50,72.9
		L25.3,97.6c-1.6,1.6-3.5,2.4-5.7,2.4s-4.1-0.8-5.7-2.4L2.4,86.2C0.8,84.6,0,82.7,0,80.5c0-2.2,0.8-4.1,2.4-5.7L27.1,50L2.4,25.3
		C0.8,23.7,0,21.8,0,19.5s0.8-4.1,2.4-5.7L13.8,2.4C15.4,0.8,17.3,0,19.5,0s4.2,0.8,5.7,2.4L50,27.1L74.7,2.4
		C76.3,0.8,78.2,0,80.5,0c2.2,0,4.2,0.8,5.7,2.4l11.4,11.4c1.6,1.6,2.4,3.5,2.4,5.7s-0.8,4.2-2.4,5.7L72.9,50l24.7,24.7
		C99.2,76.3,100,78.2,100,80.5z"/>
</g>
</svg>
