<?xml version="1.0" encoding="utf-8"?>
<!-- Generator: Adobe Illustrator 19.2.1, SVG Export Plug-In . SVG Version: 6.00 Build 0)  -->
<svg version="1.1" id="Layer_1" xmlns="http://www.w3.org/2000/svg" xmlns:xlink="http://www.w3.org/1999/xlink" x="0px" y="0px"
	 viewBox="0 0 200 200" style="enable-background:new 0 0 200 200;" xml:space="preserve">
<path id="White_2_" d="M189,0H11C4.9,0,0,4.9,0,11V189c0,6.1,4.9,11,11,11h95.8v-77.5H80.8V92.4h26.1V70.1
	c0-25.8,15.8-39.9,38.8-39.9c11,0,20.5,0.8,23.3,1.2v27l-16,0c-12.5,0-15,6-15,14.7v19.3h29.9l-3.9,30.2h-26V200h51
	c6.1,0,11-4.9,11-11V11C200,4.9,195.1,0,189,0z"/>
</svg>
