<?xml version="1.0" encoding="utf-8"?>
<!-- Generator: Adobe Illustrator 18.1.1, SVG Export Plug-In . SVG Version: 6.00 Build 0)  -->
<svg version="1.1" id="Layer_1" xmlns="http://www.w3.org/2000/svg" xmlns:xlink="http://www.w3.org/1999/xlink" x="0px" y="0px"
	 viewBox="0 0 62 60" enable-background="new 0 0 62 60" xml:space="preserve">
<path fill-rule="evenodd" clip-rule="evenodd" d="M30.8,0C13.8,0,0,13.8,0,30.8c0,13.6,8.8,25.1,21,29.2c1.5,0.3,2.1-0.7,2.1-1.5
	c0-0.7,0-2.7,0-5.2c-8.6,1.9-10.4-4.1-10.4-4.1c-1.4-3.6-3.4-4.5-3.4-4.5c-2.8-1.9,0.2-1.9,0.2-1.9c3.1,0.2,4.7,3.2,4.7,3.2
	c2.7,4.7,7.2,3.3,9,2.6c0.3-2,1.1-3.3,2-4.1c-6.8-0.8-14-3.4-14-15.2c0-3.4,1.2-6.1,3.2-8.3c-0.3-0.8-1.4-3.9,0.3-8.1
	c0,0,2.6-0.8,8.5,3.2c2.5-0.7,5.1-1,7.7-1c2.6,0,5.2,0.4,7.7,1c5.9-4,8.5-3.2,8.5-3.2c1.7,4.2,0.6,7.4,0.3,8.1
	c2,2.2,3.2,4.9,3.2,8.3c0,11.8-7.2,14.4-14,15.2c1.1,0.9,2.1,2.8,2.1,5.7c0,4.1,0,7.4,0,8.4c0,0.8,0.6,1.8,2.1,1.5
	c12.2-4.1,21-15.6,21-29.2C61.5,13.8,47.7,0,30.8,0z"/>
</svg>
