<svg id="Layer_1" data-name="Layer 1" xmlns="http://www.w3.org/2000/svg" viewBox="0 0 100 100"><defs><style>.cls-1{fill:#fff;}</style></defs><title>magnifying-glass-white</title><path class="cls-1" d="M2.22,86.91L22.83,66.28a41.18,41.18,0,0,1-7.45-24,41.54,41.54,0,0,1,3.34-16.44A41.43,41.43,0,0,1,41.25,3.33a42.18,42.18,0,0,1,32.87,0A41.43,41.43,0,0,1,96.66,25.87a42.13,42.13,0,0,1,0,32.87A41.42,41.42,0,0,1,74.13,81.29,41.7,41.7,0,0,1,57.7,84.62a41.19,41.19,0,0,1-24-7.45L13.1,97.72A7.15,7.15,0,0,1,7.69,100a7.39,7.39,0,0,1-5.41-2.28A7.42,7.42,0,0,1,0,92.31,7.35,7.35,0,0,1,2.22,86.91ZM57.7,69.23a25.93,25.93,0,0,0,19-7.9,25.94,25.94,0,0,0,7.91-19,25.93,25.93,0,0,0-7.91-19,25.92,25.92,0,0,0-19-7.91,25.93,25.93,0,0,0-19,7.91,25.92,25.92,0,0,0-7.9,19,25.93,25.93,0,0,0,7.9,19A25.94,25.94,0,0,0,57.7,69.23Z"/></svg>