<?xml version="1.0" encoding="utf-8"?>
<!-- Generator: Adobe Illustrator 19.2.1, SVG Export Plug-In . SVG Version: 6.00 Build 0)  -->
<svg version="1.1" id="Layer_1" xmlns="http://www.w3.org/2000/svg" xmlns:xlink="http://www.w3.org/1999/xlink" x="0px" y="0px"
	 viewBox="0 0 200 200" style="enable-background:new 0 0 200 200;" xml:space="preserve">
<style type="text/css">
	.st0{fill:#FFFFFF;}
</style>
<g>
	<path class="st0" d="M200,124.8c-0.2-24.6-5.2-42.9-11.2-61.1c-4.9-14.9-11-29.1-20.8-41.6C155.2,5.9,137.9-0.4,117.8,0
		C103.9,0.3,90.3,3.2,77,7.1C59.6,12.2,42.4,18,27.2,28.3C11.8,38.7,2.4,52.8,0.5,71.6C-0.9,84.9,0.9,97.9,4,110.8
		c5,20.9,11.3,41.3,22.7,59.8c12.4,19.9,30.4,30.1,53.7,29.3c12.1-0.4,24.4-2.6,36.2-5.4c19.1-4.5,37.6-10.8,54.3-21.5
		C190.5,160.6,200.5,142.9,200,124.8z"/>
	<path d="M200,124.8c0.5,18.1-9.5,35.8-29,48.2c-16.7,10.7-35.2,17-54.3,21.5c-11.9,2.8-24.1,5-36.2,5.4
		c-23.3,0.8-41.3-9.4-53.7-29.3C15.2,152.2,8.9,131.7,4,110.8C0.9,97.9-0.9,84.9,0.5,71.6c2-18.8,11.3-32.9,26.7-43.3
		C42.4,18,59.6,12.2,77,7.1c13.3-3.9,26.9-6.8,40.8-7.1c20.1-0.5,37.4,5.9,50.3,22.2c9.8,12.4,15.9,26.7,20.8,41.6
		C194.8,81.9,199.8,100.2,200,124.8z M122.2,56.4c-1.1-3.3-2.1-6-3-8.8c-0.7-1.9-1.2-3.8-2-5.6c-2.2-4.8-7.8-7.1-12.7-5.4
		c-5.1,1.8-8.1,7.2-6.6,12.5c1.3,4.7,3,9.2,4.6,14.1c-9.1,3-17.8,5.9-26.6,8.8c-1.6-4.8-3-9.1-4.6-13.3c-2.2-5.8-7.8-8.4-13.2-6.4
		c-5.6,2-8.1,7.3-6.3,13.2c1.3,4.3,2.8,8.6,4.3,13.2c-4.2,1.4-8.2,2.8-12.2,4.2c-6.1,2.1-9.1,7.5-7.2,13.1c1.9,5.8,7.5,8.5,13.8,6.5
		c4-1.3,8-2.6,12.3-4c2.9,8.7,5.7,17.1,8.5,25.6c-4.5,1.5-8.6,2.9-12.5,4.3c-5.8,2.1-8.7,7.4-7,12.9c1.8,5.7,7.4,8.5,13.4,6.7
		c4.2-1.3,8.3-2.7,12.4-4c0.3,0.3,0.5,0.5,0.6,0.7c1.3,3.8,2.6,7.5,3.9,11.3c2.3,6.7,7.6,9.7,13.5,7.7c5.8-1.9,8.2-7.7,6.1-14.4
		c-1.3-4-2.6-8-4-12.2c9-3,17.7-5.9,26.6-8.9c1.6,4.6,2.9,8.7,4.4,12.8c2.2,6.1,7.7,8.9,13.2,7.1c5.7-1.9,8.3-7.6,6.2-14
		c-1.3-4.1-2.7-8.2-4.1-12.5c2.2-0.8,4.1-1.4,6-2c2-0.7,4-1.3,6-2.1c6.3-2.3,9.4-7.8,7.4-13.4c-2.1-5.8-7.6-8.3-14-6.2
		c-3.9,1.2-7.8,2.5-12.1,3.9c-2.9-8.7-5.7-17-8.6-25.6c4.7-1.6,9-2.9,13.2-4.6c5.5-2.2,8.1-7.7,6.2-13c-2-5.6-7.3-8.2-13.2-6.5
		C130.8,53.5,126.7,54.9,122.2,56.4z"/>
	<path class="st0" d="M122.2,56.4c4.5-1.5,8.7-2.9,12.8-4.2c5.8-1.8,11.2,0.9,13.2,6.5c1.9,5.2-0.7,10.8-6.2,13
		c-4.2,1.7-8.5,3-13.2,4.6c2.9,8.5,5.7,16.9,8.6,25.6c4.3-1.4,8.2-2.7,12.1-3.9c6.4-2,11.9,0.4,14,6.2c2,5.6-1,11.1-7.4,13.4
		c-2,0.7-4,1.4-6,2.1c-1.9,0.6-3.8,1.3-6,2c1.4,4.3,2.7,8.4,4.1,12.5c2,6.3-0.5,12-6.2,14c-5.6,1.9-11-1-13.2-7.1
		c-1.5-4.1-2.8-8.3-4.4-12.8c-8.9,3-17.5,5.9-26.6,8.9c1.4,4.2,2.7,8.2,4,12.2c2.1,6.7-0.3,12.4-6.1,14.4c-5.9,2-11.2-1.1-13.5-7.7
		c-1.3-3.8-2.6-7.5-3.9-11.3c-0.1-0.2-0.3-0.4-0.6-0.7c-4.1,1.3-8.2,2.8-12.4,4c-6,1.8-11.6-1-13.4-6.7c-1.7-5.5,1.1-10.8,7-12.9
		c4-1.4,8-2.8,12.5-4.3c-2.9-8.5-5.6-16.9-8.5-25.6c-4.3,1.4-8.3,2.7-12.3,4c-6.4,2-11.9-0.7-13.8-6.5c-1.8-5.6,1.1-11,7.2-13.1
		c4-1.4,8-2.7,12.2-4.2c-1.5-4.6-3-8.9-4.3-13.2c-1.8-5.9,0.7-11.2,6.3-13.2c5.4-2,11,0.7,13.2,6.4c1.6,4.2,2.9,8.5,4.6,13.3
		c8.8-2.9,17.5-5.8,26.6-8.8c-1.6-4.8-3.2-9.4-4.6-14.1c-1.5-5.2,1.5-10.7,6.6-12.5c5-1.7,10.5,0.6,12.7,5.4c0.8,1.8,1.3,3.8,2,5.6
		C120.1,50.4,121.1,53.1,122.2,56.4z M109,82.7c-9.1,3.1-17.7,6-26.7,9c2.9,8.7,5.8,17.1,8.7,25.7c9.1-3,17.7-6,26.7-9
		C114.7,99.7,111.9,91.5,109,82.7z"/>
	<path d="M109,82.7c2.9,8.7,5.7,17,8.7,25.7c-9,3-17.6,5.9-26.7,9c-2.9-8.6-5.7-16.9-8.7-25.7C91.3,88.7,99.9,85.8,109,82.7z"/>
</g>
</svg>
