<?xml version="1.0" encoding="utf-8"?>
<!-- Generator: Adobe Illustrator 19.2.1, SVG Export Plug-In . SVG Version: 6.00 Build 0)  -->
<svg version="1.1" id="Layer_1" xmlns="http://www.w3.org/2000/svg" xmlns:xlink="http://www.w3.org/1999/xlink" x="0px" y="0px"
	 viewBox="0 0 300 50" style="enable-background:new 0 0 300 50;" xml:space="preserve">
<style type="text/css">
	.st0{opacity:0.7;fill:#FFFFFF;enable-background:new    ;}
	.st1{fill:#FFFFFF;}
</style>
<title>Untitled-2</title>
<path class="st0" d="M36.6,0.5l-7.5,31.3h-3.9L18.3,7.5L12,31.8H8L0,0.5h4.1l6.3,25.4L17,0.5h3.2l7.2,25.4l5.8-25.4H36.6z"/>
<path class="st0" d="M51.2,31.8h-3.9V0.5h11.1c3.5,0,6,0.9,7.7,2.8c1.6,1.8,2.5,4.1,2.5,6.5c0.1,2.5-0.9,4.9-2.7,6.7
	c-1.9,1.8-4.4,2.7-7,2.6h-7.6C51.2,19.1,51.2,31.8,51.2,31.8z M51.2,15.8h7.2c1.7,0.1,3.3-0.5,4.5-1.7c1.2-1.2,1.8-2.8,1.7-4.4
	c0-1.5-0.6-3-1.5-4.1c-1.1-1.3-2.7-1.9-4.4-1.8h-7.5V15.8L51.2,15.8z"/>
<path class="st1" d="M96.2,19.8l8.8,0.5c-0.2,3.4-1.7,6.6-4.2,8.8c-2.5,2.1-5.7,3.2-8.9,3.1c-3.9,0.1-7.6-1.4-10.3-4.3
	c-2.6-2.8-3.9-6.7-3.9-11.6s1.2-8.9,3.7-11.8c2.5-3,6-4.5,10.4-4.5c4.1,0,7.3,1.1,9.6,3.4c2.3,2.5,3.6,5.7,3.8,9.1L96,13
	c0.1-1.6-0.3-3.2-1.2-4.5c-0.7-0.9-1.7-1.4-2.8-1.4c-3,0-4.5,3-4.5,9.1c0,3.4,0.4,5.7,1.2,7c0.7,1.2,1.9,1.9,3.3,1.9
	C94.4,25,95.8,23.3,96.2,19.8z"/>
<path class="st1" d="M133,31.8l-1.8-6.2h-8.4l-1.8,6.2h-7.8l9.7-31.3H133l9.8,31.3H133z M124.5,18.8h5.1L127,9.7L124.5,18.8z"/>
<path class="st1" d="M186.3,0.5v31.3h-8.9V9.4l-5.8,22.4h-6.1l-6-22.4v22.4h-7.2V0.5h12.6l4.5,16.6l4.3-16.6L186.3,0.5L186.3,0.5z"
	/>
<path class="st1" d="M208.3,20.4v11.4h-9.7V0.5h13.4c2.6-0.1,5.2,0.3,7.6,1.1c1.7,0.7,3.1,2,4.1,3.5c1,1.6,1.5,3.4,1.5,5.3
	c0.1,2.8-1,5.4-3.1,7.2c-2.3,1.9-5.3,2.9-8.3,2.8L208.3,20.4L208.3,20.4z M208.2,13.7h3.2c2.8,0,4.2-1,4.2-3.1c0-2-1.3-2.9-3.9-2.9
	h-3.5L208.2,13.7L208.2,13.7z"/>
<path class="st1" d="M261.5,0.5v20.7c0,3.9-1.2,6.8-3.5,8.5c-2.7,1.8-5.9,2.7-9.1,2.6c-3.9,0-7.1-0.8-9.5-2.5
	c-2.4-1.7-3.6-4.3-3.6-8.1V0.5h9.8v20.1c-0.1,1.2,0.2,2.3,0.9,3.3c0.8,0.7,1.9,1.1,3,1c1,0,2-0.2,2.9-0.8c0.6-0.4,1.1-1,1.3-1.7
	c0.2-1.2,0.3-2.4,0.3-3.6V0.5H261.5L261.5,0.5z"/>
<path class="st1" d="M271.9,22.7l8.9-1.6c0.7,2.5,2.7,3.8,5.8,3.8c2.4,0,3.6-0.6,3.6-1.9c0-0.6-0.3-1.2-0.8-1.6
	c-0.9-0.5-1.9-0.8-3-1c-5.5-1.1-9-2.4-10.6-4.1c-1.5-1.6-2.4-3.8-2.3-6c-0.1-2.8,1.2-5.5,3.4-7.4c2.2-1.9,5.5-2.9,9.7-2.9
	c6.4,0,10.6,2.6,12.6,7.7l-8,2.4c-0.8-2.1-2.5-3.1-5-3.1c-2.1,0-3.1,0.7-3.1,1.9c0,0.5,0.3,1.1,0.7,1.4c0.9,0.5,1.8,0.8,2.8,0.9
	c2.7,0.5,5.4,1.2,8,2.1c1.6,0.6,3,1.7,3.9,3.1c1.1,1.5,1.6,3.3,1.6,5.2c0.1,3-1.4,5.9-3.9,7.7c-2.6,2-6,2.9-10.1,2.9
	C278.4,32.3,273.7,29.1,271.9,22.7z"/>
<path class="st1" d="M9.2,49.9H8.1l-1.9-6.2c-0.1-0.3-0.2-0.6-0.3-1c-0.1-0.2-0.1-0.5-0.2-0.8c-0.1,0.6-0.3,1.2-0.4,1.8l-1.8,6.1
	H2.5L0,40.6h1.1l1.5,5.7c0.2,0.7,0.3,1.5,0.5,2.2c0.1-0.8,0.3-1.5,0.5-2.3l1.7-5.7h1.1l1.8,5.7c0.2,0.7,0.4,1.5,0.5,2.2
	c0.1-0.7,0.3-1.5,0.5-2.2l1.5-5.7h1.1L9.2,49.9z"/>
<path class="st1" d="M20.4,49.9h-1.1v-4.4h-4.9v4.4h-1.1v-9.3h1.1v4h4.9v-4h1.1V49.9L20.4,49.9z"/>
<path class="st1" d="M28.2,49.9H23v-9.3h5.2v1h-4.1v3H28v1h-3.9V49h4.1v1L28.2,49.9z"/>
<path class="st1" d="M31.5,46v3.9h-1.1v-9.3H33c0.9-0.1,1.8,0.2,2.5,0.7c0.6,0.5,0.9,1.2,0.8,2c0,1.2-0.7,2.2-1.9,2.5l2.5,4.1h-1.3
	L33.4,46H31.5z M31.5,45.1H33c0.6,0.1,1.2-0.1,1.7-0.5c0.4-0.3,0.6-0.8,0.5-1.4c0-0.5-0.2-1-0.5-1.3c-0.5-0.3-1.1-0.5-1.8-0.4h-1.4
	V45.1L31.5,45.1z"/>
<path class="st1" d="M43.8,49.9h-5.2v-9.3h5.2v1h-4.1v3h3.8v1h-3.9V49h4.1v1L43.8,49.9z"/>
<path class="st1" d="M57.6,49.9h-1.1l-1.9-6.2c-0.1-0.3-0.2-0.6-0.3-1c-0.1-0.2-0.1-0.5-0.2-0.8c-0.1,0.6-0.3,1.2-0.5,1.8l-1.8,6.2
	h-1.1l-2.5-9.3h1.1l1.5,5.7c0.2,0.7,0.3,1.5,0.5,2.2c0.1-0.8,0.3-1.5,0.5-2.3l1.7-5.7h1.1l1.8,5.7c0.2,0.7,0.4,1.5,0.5,2.2
	c0.1-0.7,0.3-1.5,0.5-2.2l1.5-5.7h1.1L57.6,49.9z"/>
<path class="st1" d="M69.7,45.2c0.1,1.3-0.3,2.5-1.1,3.5c-0.8,0.9-2,1.3-3.1,1.3c-1.2,0.1-2.4-0.4-3.2-1.3c-0.8-1-1.2-2.3-1.1-3.5
	c-0.1-1.3,0.3-2.5,1.1-3.5c0.8-0.9,2-1.3,3.2-1.2c1.2-0.1,2.3,0.4,3.1,1.3C69.4,42.7,69.8,43.9,69.7,45.2z M62.3,45.2
	c-0.1,1,0.2,2,0.8,2.9c1.3,1.3,3.4,1.3,4.7,0c0,0,0,0,0,0c0.6-0.8,0.9-1.9,0.8-2.9c0.1-1-0.2-2-0.8-2.8c-0.6-0.7-1.4-1.1-2.3-1
	c-0.9-0.1-1.8,0.3-2.3,1C62.5,43.2,62.3,44.2,62.3,45.2z"/>
<path class="st1" d="M73,46v3.9h-1.1v-9.3h2.6c0.9-0.1,1.8,0.2,2.5,0.7c0.6,0.5,0.9,1.2,0.8,2c0,1.1-0.7,2.2-1.8,2.5l2.5,4.2h-1.3
	L75,46H73z M73,45.1h1.5c0.6,0.1,1.2-0.1,1.7-0.5c0.4-0.3,0.6-0.8,0.5-1.4c0-0.5-0.2-1-0.5-1.3c-0.5-0.3-1.1-0.5-1.8-0.4H73V45.1
	L73,45.1z"/>
<path class="st1" d="M87.5,45.1c0.1,1.3-0.4,2.6-1.2,3.5c-1,0.9-2.3,1.3-3.6,1.2h-2.6v-9.3H83c2.3-0.2,4.3,1.5,4.5,3.8
	C87.6,44.6,87.6,44.9,87.5,45.1z M86.4,45.1c0.1-1-0.3-2-0.9-2.7c-0.7-0.7-1.7-1-2.7-0.9h-1.6v7.4h1.3c1.1,0.1,2.1-0.3,2.9-1
	C86.1,47.2,86.5,46.2,86.4,45.1L86.4,45.1z"/>
<path class="st1" d="M95.6,43.3c0,0.8-0.3,1.7-1,2.2c-0.8,0.6-1.8,0.8-2.8,0.8h-1v3.7h-1.1v-9.3h2.4C94.5,40.6,95.6,41.5,95.6,43.3z
	 M90.8,45.3h1c0.7,0.1,1.4-0.1,2.1-0.5c0.5-0.4,0.7-0.9,0.6-1.5c0-0.5-0.2-1-0.6-1.4c-0.6-0.4-1.3-0.5-2-0.5h-1.2V45.3L90.8,45.3z"
	/>
<path class="st1" d="M98.8,46v3.9h-1.1v-9.3h2.6c0.9-0.1,1.8,0.2,2.5,0.7c0.6,0.5,0.9,1.2,0.8,2c0,1.2-0.7,2.2-1.9,2.5l2.5,4.2H103
	l-2.3-3.9H98.8z M98.8,45.1h1.5c0.6,0.1,1.2-0.1,1.7-0.5c0.4-0.3,0.6-0.8,0.5-1.4c0-0.5-0.2-1-0.5-1.3c-0.5-0.3-1.1-0.5-1.8-0.4
	h-1.4V45.1L98.8,45.1z"/>
<path class="st1" d="M111.1,49.9h-5.2v-9.3h5.2v1H107v3h3.8v1H107V49h4.1v1L111.1,49.9z"/>
<path class="st1" d="M118.5,47.4c0,0.7-0.3,1.5-0.9,1.9c-0.7,0.5-1.6,0.7-2.4,0.7c-0.9,0-1.7-0.1-2.5-0.4v-1
	c0.4,0.2,0.8,0.3,1.2,0.4c0.4,0.1,0.9,0.1,1.3,0.1c0.6,0,1.1-0.1,1.6-0.4c0.4-0.3,0.6-0.7,0.6-1.1c0-0.3-0.1-0.5-0.2-0.8
	c-0.2-0.2-0.4-0.4-0.7-0.6c-0.4-0.2-0.9-0.4-1.4-0.6c-0.7-0.2-1.3-0.6-1.8-1.1c-0.4-0.5-0.6-1.1-0.6-1.7c0-0.7,0.3-1.3,0.8-1.7
	c0.6-0.5,1.4-0.7,2.1-0.6c0.9,0,1.7,0.2,2.6,0.5l-0.3,0.9c-0.7-0.3-1.5-0.5-2.2-0.5c-0.5,0-0.9,0.1-1.3,0.4c-0.3,0.2-0.5,0.6-0.5,1
	c0,0.3,0.1,0.5,0.2,0.8c0.1,0.2,0.4,0.4,0.6,0.6c0.4,0.2,0.8,0.4,1.3,0.6c0.7,0.2,1.4,0.6,2,1.1C118.3,46.3,118.5,46.8,118.5,47.4z"
	/>
<path class="st1" d="M125.8,47.4c0,0.7-0.3,1.5-0.9,1.9c-0.7,0.5-1.6,0.7-2.4,0.7c-0.9,0-1.7-0.1-2.5-0.4v-1
	c0.4,0.2,0.8,0.3,1.2,0.4c0.4,0.1,0.9,0.1,1.3,0.1c0.6,0,1.1-0.1,1.6-0.4c0.4-0.3,0.6-0.7,0.6-1.1c0-0.3-0.1-0.5-0.2-0.8
	c-0.2-0.2-0.4-0.4-0.7-0.6c-0.4-0.2-0.9-0.4-1.4-0.6c-0.7-0.2-1.3-0.6-1.8-1.1c-0.4-0.5-0.6-1.1-0.6-1.7c0-0.7,0.3-1.3,0.8-1.7
	c0.6-0.5,1.4-0.7,2.1-0.6c0.9,0,1.7,0.2,2.6,0.5l-0.3,0.9c-0.7-0.3-1.5-0.5-2.2-0.5c-0.5,0-0.9,0.1-1.3,0.4c-0.3,0.2-0.5,0.6-0.5,1
	c0,0.3,0.1,0.5,0.2,0.8c0.1,0.2,0.4,0.4,0.6,0.6c0.4,0.2,0.8,0.4,1.3,0.6c0.7,0.2,1.4,0.6,2,1.1C125.6,46.3,125.8,46.8,125.8,47.4z"
	/>
<path class="st1" d="M135.5,49.9l-3.1-8.2h-0.1c0.1,0.7,0.1,1.4,0.1,2.3v5.9h-1v-9.3h1.6l2.9,7.7h0.1l3-7.7h1.6v9.3h-1.1v-6
	c0-0.7,0-1.4,0.1-2.2h-0.1l-3.2,8.2L135.5,49.9L135.5,49.9z"/>
<path class="st1" d="M148.4,49.9h-5.2v-9.3h5.2v1h-4.1v3h3.9v1h-3.9V49h4.1v1V49.9z"/>
<path class="st1" d="M155.8,49.9h-5.2v-9.3h5.2v1h-4.1v3h3.9v1h-3.9V49h4.1v1V49.9z"/>
<path class="st1" d="M160.9,49.9h-1.1v-8.3h-2.9v-1h7v1h-2.9L160.9,49.9L160.9,49.9z"/>
<path class="st1" d="M170.6,47.4c0,0.7-0.3,1.5-0.9,1.9c-0.7,0.5-1.6,0.7-2.4,0.7c-0.9,0-1.7-0.1-2.5-0.4v-1
	c0.4,0.2,0.8,0.3,1.2,0.4c0.4,0.1,0.9,0.1,1.3,0.1c0.6,0,1.1-0.1,1.6-0.4c0.4-0.3,0.6-0.7,0.6-1.1c0-0.3-0.1-0.5-0.2-0.8
	c-0.2-0.2-0.4-0.4-0.6-0.6c-0.4-0.2-0.9-0.4-1.4-0.6c-0.7-0.2-1.3-0.6-1.9-1.1c-0.4-0.5-0.6-1.1-0.6-1.7c0-0.7,0.3-1.3,0.8-1.7
	c0.6-0.5,1.4-0.7,2.1-0.6c0.9,0,1.7,0.2,2.6,0.5l-0.3,0.9c-0.7-0.3-1.5-0.5-2.2-0.5c-0.5,0-0.9,0.1-1.3,0.4c-0.3,0.2-0.5,0.6-0.5,1
	c0,0.3,0.1,0.5,0.2,0.8c0.1,0.2,0.4,0.4,0.6,0.6c0.4,0.2,0.8,0.4,1.3,0.6c0.7,0.2,1.4,0.6,2,1.1C170.4,46.3,170.6,46.8,170.6,47.4z"
	/>
<path class="st1" d="M183.2,49.9h-1.1v-4.4h-4.9v4.4h-1.1v-9.3h1.1v4h4.9v-4h1.1V49.9L183.2,49.9z"/>
<path class="st1" d="M185.9,49.9v-9.3h1.1v9.3H185.9z"/>
<path class="st1" d="M193.7,45h3.2v4.5c-0.5,0.2-1,0.3-1.5,0.4c-0.6,0.1-1.2,0.1-1.8,0.1c-1.2,0.1-2.4-0.4-3.3-1.3
	c-0.8-1-1.3-2.2-1.2-3.5c0-0.9,0.2-1.8,0.6-2.5c0.4-0.7,1-1.3,1.7-1.7c0.8-0.4,1.7-0.6,2.6-0.6c1,0,1.9,0.2,2.8,0.5l-0.4,1
	c-0.8-0.3-1.6-0.5-2.4-0.5c-1-0.1-1.9,0.3-2.6,1c-0.7,0.8-1,1.8-1,2.8c-0.1,1,0.3,2.1,0.9,2.9c0.7,0.7,1.7,1.1,2.7,1
	c0.6,0,1.3-0.1,1.9-0.2V46h-2V45z"/>
<path class="st1" d="M206.3,49.9h-1.1v-4.4h-4.9v4.4h-1.1v-9.3h1.1v4h4.9v-4h1.1V49.9L206.3,49.9z"/>
<path class="st1" d="M214.1,49.9H209v-9.3h5.2v1H210v3h3.9v1H210V49h4.1v1L214.1,49.9z"/>
<path class="st1" d="M217.4,46v3.9h-1.1v-9.3h2.6c0.9-0.1,1.8,0.2,2.5,0.7c0.6,0.5,0.9,1.2,0.8,2c0,1.2-0.7,2.2-1.9,2.5l2.5,4.2
	h-1.3l-2.3-3.9H217.4z M217.4,45.1h1.5c0.6,0.1,1.2-0.1,1.7-0.5c0.4-0.3,0.6-0.8,0.5-1.4c0-0.5-0.2-1-0.5-1.3
	c-0.5-0.3-1.1-0.5-1.8-0.4h-1.4L217.4,45.1L217.4,45.1z"/>
<path class="st1" d="M233.2,49.9H228v-9.3h5.2v1h-4.1v3h3.9v1h-3.9V49h4.1v1L233.2,49.9z"/>
<path class="st1" d="M242.8,45.1c0.1,1.3-0.4,2.6-1.2,3.5c-1,0.9-2.3,1.3-3.6,1.2h-2.6v-9.3h2.9c2.3-0.2,4.3,1.4,4.6,3.7
	C242.9,44.6,242.9,44.8,242.8,45.1z M241.7,45.1c0.1-1-0.3-2-0.9-2.7c-0.7-0.7-1.7-1-2.7-0.9h-1.6v7.4h1.3c1.1,0.1,2.1-0.3,2.9-1
	C241.4,47.2,241.7,46.2,241.7,45.1L241.7,45.1z"/>
<path class="st1" d="M252.1,40.6v6c0,0.9-0.3,1.8-1,2.5c-0.7,0.6-1.7,1-2.6,0.9c-1,0.1-1.9-0.3-2.6-0.9c-0.6-0.7-1-1.6-0.9-2.5v-6
	h1.1v6.1c0,0.7,0.2,1.3,0.6,1.8c0.5,0.4,1.2,0.7,1.9,0.6c0.7,0,1.3-0.2,1.8-0.6c0.5-0.5,0.7-1.1,0.6-1.8v-6H252.1L252.1,40.6z"/>
<path class="st1" d="M258.6,41.4c-0.9-0.1-1.8,0.3-2.4,1c-0.6,0.8-0.9,1.8-0.9,2.8c-0.1,1,0.2,2,0.9,2.8c0.6,0.7,1.5,1.1,2.4,1
	c0.8,0,1.5-0.1,2.2-0.3v1c-0.8,0.3-1.6,0.4-2.4,0.4c-1.2,0.1-2.4-0.4-3.2-1.2c-0.8-1-1.2-2.3-1.1-3.5c0-0.9,0.2-1.7,0.5-2.5
	c0.3-0.7,0.9-1.3,1.5-1.7c0.7-0.4,1.6-0.6,2.4-0.6c0.9,0,1.8,0.2,2.6,0.5l-0.5,0.9C260.1,41.6,259.4,41.4,258.6,41.4z"/>
<path class="st1" d="M268.8,49.9l-1.2-3H264l-1.1,3h-1.1l3.7-9.3h0.9l3.6,9.3H268.8L268.8,49.9z M267.4,45.9l-1.1-2.9
	c-0.1-0.4-0.3-0.8-0.4-1.3c-0.1,0.5-0.2,0.9-0.4,1.3l-1.1,2.9H267.4L267.4,45.9z"/>
<path class="st1" d="M274.2,49.9h-1.1v-8.3h-3v-1h7v1h-2.9L274.2,49.9L274.2,49.9z"/>
<path class="st1" d="M278.7,49.9v-9.3h1.1v9.3H278.7z"/>
<path class="st1" d="M290.5,45.2c0.1,1.3-0.3,2.5-1.1,3.5c-0.8,0.9-1.9,1.3-3.1,1.3c-1.2,0.1-2.4-0.4-3.2-1.3
	c-0.8-1-1.2-2.3-1.1-3.5c-0.1-1.3,0.3-2.5,1.1-3.5c0.8-0.9,2-1.3,3.2-1.2c1.2-0.1,2.3,0.4,3.1,1.3C290.2,42.7,290.6,43.9,290.5,45.2
	z M283.1,45.2c-0.1,1,0.2,2,0.8,2.9c1.3,1.3,3.4,1.3,4.7,0c0,0,0,0,0,0c0.6-0.8,0.9-1.9,0.8-2.9c0.1-1-0.2-2-0.8-2.8
	c-0.6-0.7-1.4-1.1-2.3-1c-0.9-0.1-1.8,0.3-2.4,1C283.3,43.2,283,44.2,283.1,45.2z"/>
<path class="st1" d="M300,49.9h-1.2l-5.1-7.8h0c0.1,0.9,0.1,1.8,0.1,2.5v5.3h-1v-9.3h1.3l5,7.8h0c0-0.1,0-0.5-0.1-1.1s0-1.1,0-1.3
	v-5.3h1L300,49.9L300,49.9z"/>
</svg>
