<svg id="Layer_1" data-name="Layer 1" xmlns="http://www.w3.org/2000/svg" viewBox="0 0 61.8 60.15"><defs><style>.cls-1{fill:#fff;}</style></defs><title>github-black</title><path class="cls-1" d="M30.8,0A30.8,30.8,0,0,0,21,60a1.57,1.57,0,0,0,2.1-1.5V53.3c-8.6,1.9-10.4-4.1-10.4-4.1-1.4-3.6-3.4-4.5-3.4-4.5-2.8-1.9.2-1.9,0.2-1.9C12.6,43,14.2,46,14.2,46c2.7,4.7,7.2,3.3,9,2.6a6.6,6.6,0,0,1,2-4.1c-6.8-.8-14-3.4-14-15.2A11.9,11.9,0,0,1,14.4,21a10.92,10.92,0,0,1,.3-8.1s2.6-.8,8.5,3.2a28.56,28.56,0,0,1,7.7-1,33.17,33.17,0,0,1,7.7,1c5.9-4,8.5-3.2,8.5-3.2a10.87,10.87,0,0,1,.3,8.1,11.9,11.9,0,0,1,3.2,8.3c0,11.8-7.2,14.4-14,15.2,1.1,0.9,2.1,2.8,2.1,5.7v8.4a1.57,1.57,0,0,0,2.1,1.5,30.8,30.8,0,0,0,21-29.2A31.27,31.27,0,0,0,30.8,0Z"/></svg>