<svg id="Layer_1" data-name="Layer 1" xmlns="http://www.w3.org/2000/svg" viewBox="0 0 70 60"><title>Untitled-2</title><path d="M70,9a39.35,39.35,0,0,1-7.26,7.67v1.67A45.23,45.23,0,0,1,61.08,30,42.23,42.23,0,0,1,55.8,41c-2.31,4-5.28,6.67-8.58,9.67A38.58,38.58,0,0,1,36,57.33,40.91,40.91,0,0,1,22.12,60,39.34,39.34,0,0,1,0,53.33H3.63a26.47,26.47,0,0,0,17.83-6.67,14.85,14.85,0,0,1-8.58-3,14.51,14.51,0,0,1-5.28-7.33,9.21,9.21,0,0,0,2.64.33,16.43,16.43,0,0,0,4-.67,14.2,14.2,0,0,1-8.58-5,14.05,14.05,0,0,1-3.3-9.33V21.33A11.51,11.51,0,0,0,8.92,23a14.23,14.23,0,0,1-4.62-5.33,15.61,15.61,0,0,1-1.65-7,13.54,13.54,0,0,1,2-7.33c4,4.67,8.25,8.33,12.88,10.33A39.18,39.18,0,0,0,34,18a13.8,13.8,0,0,1-.33-3.67c0-4,1.32-7.67,4.29-10,3-2.67,6.6-4.33,9.91-4.33,4.29,0,7.92,1.33,10.24,4.67A20.83,20.83,0,0,0,67.36,1a15,15,0,0,1-6.6,8.33C65,10.67,68,10,70,9Z"/></svg>