<?xml version="1.0" encoding="utf-8"?>
<!-- Generator: Adobe Illustrator 19.1.0, SVG Export Plug-In . SVG Version: 6.00 Build 0)  -->
<svg version="1.1" id="Layer_1" xmlns="http://www.w3.org/2000/svg" xmlns:xlink="http://www.w3.org/1999/xlink" x="0px" y="0px"
	 viewBox="0 0 24 20" style="enable-background:new 0 0 24 20;" xml:space="preserve">
<path d="M22.2,3.7C21.6,4.5,20.9,5.3,20,6c0,0.1,0,0.4,0,0.5c0,1.2-0.2,2.4-0.5,3.5c-0.4,1.2-0.9,2.3-1.6,3.3
	c-0.7,1.2-1.6,2-2.6,2.9c-1,0.9-2.2,1.5-3.4,2C10.5,18.7,9.1,19,7.7,19C5.2,19,3,18.3,1,17C1.4,17,1.7,17,2.1,17c2,0,3.7-0.6,5.4-2
	c-1,0-1.9-0.4-2.6-0.9c-0.8-0.6-1.3-1.3-1.6-2.2c0.4,0.1,0.6,0.1,0.8,0.1c0.4,0,0.8-0.1,1.2-0.2c-1.1-0.2-1.9-0.7-2.6-1.5
	c-0.7-0.8-1-1.8-1-2.8V7.4c0.6,0.4,1.3,0.5,2,0.5c-0.6-0.4-1.1-1-1.4-1.6C2,5.7,1.8,5,1.8,4.2S2,2.6,2.4,2c1.2,1.4,2.5,2.5,3.9,3.1
	c1.6,0.8,3.1,1.2,5,1.3c-0.1-0.4-0.1-0.7-0.1-1.1c0-1.2,0.4-2.3,1.3-3c0.9-0.8,2-1.3,3-1.3c1.3,0,2.4,0.4,3.1,1.4
	c1.1-0.2,2-0.5,2.8-1.1c-0.4,1.1-1,1.9-2,2.5C20.7,4.2,21.6,4,22.2,3.7z"/>
</svg>
