<?xml version="1.0" encoding="utf-8"?>
<!-- Generator: Adobe Illustrator 19.1.0, SVG Export Plug-In . SVG Version: 6.00 Build 0)  -->
<svg version="1.1" id="Layer_1" xmlns="http://www.w3.org/2000/svg" xmlns:xlink="http://www.w3.org/1999/xlink" x="0px" y="0px"
	 viewBox="-87 91 24 20" style="enable-background:new -87 91 24 20;" xml:space="preserve">
<style type="text/css">
	.st0{fill:#FFFFFF;}
</style>
<path class="st0" d="M-63.7,94.2c-0.7,1-1.5,1.9-2.5,2.6c0,0.1,0,0.4,0,0.6c0,1.3-0.2,2.7-0.6,3.7c-0.4,1.2-1,2.6-1.8,3.5
	c-0.8,1.3-1.8,2.3-2.9,3.3c-1.1,1-2.5,1.7-3.6,2.3c-1.6,0.6-3.2,0.9-4.6,0.9c-2.8,0-5-0.8-7.3-2.3c0.4,0,0.8,0.1,1.2,0.1
	c2.3,0,4-0.7,5.9-2.2c-1.1,0-2.1-0.4-2.9-1c-0.9-0.7-1.5-1.5-1.8-2.5c0.4,0.1,0.7,0.1,0.9,0.1c0.4,0,0.9-0.1,1.3-0.2
	c-1.2-0.2-2.1-0.8-2.9-1.7c-0.8-0.9-1.1-2-1.1-3.2v-0.2c0.7,0.4,1.5,0.6,2.3,0.6c-0.7-0.5-1.2-1.1-1.6-1.8c-0.4-0.7-0.6-1.5-0.6-2.4
	s0.2-1.8,0.7-2.5c1.3,1.6,2.8,2.8,4.2,3.3c1.7,0.8,3.3,1.4,5.4,1.5c-0.1-0.4-0.1-0.8-0.1-1.2c0-1.4,0.5-2.6,1.5-3.3
	c1-0.9,2.2-1.5,3.3-1.5c1.5,0,2.7,0.5,3.3,1.6c1.2-0.2,2.2-0.6,3.2-1.2c-0.4,1.2-1.1,2.1-2.2,2.8C-65.3,94.6-64.3,94.4-63.7,94.2z"
	/>
</svg>
