<?xml version="1.0" encoding="utf-8"?>
<!-- Generator: Adobe Illustrator 19.1.0, SVG Export Plug-In . SVG Version: 6.00 Build 0)  -->
<svg version="1.1" id="Layer_1" xmlns="http://www.w3.org/2000/svg" xmlns:xlink="http://www.w3.org/1999/xlink" x="0px" y="0px"
	 viewBox="0 0 1218 100" style="enable-background:new 0 0 1218 100;" xml:space="preserve">
<style type="text/css">
	.st0{opacity:0.7;fill:#FFFFFF;}
	.st1{fill:#FFFFFF;}
</style>
<path class="st0" d="M112.3,2L89.2,98H77.2l-21-74.5L36.8,98H24.4L0,2h12.5l19.2,77.8L52.1,2h9.8l22,77.8L101.8,2H112.3z"/>
<path class="st0" d="M187.2,100c-12.3,0-22-4.8-28.9-14.4C151.4,76,148,64.2,148,50.3c0-14.6,3.6-26.6,10.8-36.1
	C166,4.7,175.6,0,187.5,0c11.9,0,21.4,4.7,28.6,14c7.2,9.3,10.8,21.1,10.8,35.2c0,13.6-3.5,25.5-10.5,35.6
	C209.5,94.9,199.7,100,187.2,100z M187.5,90.2c8.4,0,15-3.8,19.7-11.5c4.7-7.7,7.1-17.5,7.1-29.6c0-12.4-2.5-22-7.4-28.9
	c-4.9-6.9-11.4-10.4-19.5-10.4c-8.2,0-14.7,3.7-19.6,11.2c-4.8,7.5-7.2,17.2-7.2,29.3c0,11.8,2.4,21.4,7.3,28.8
	C172.8,86.5,179.3,90.2,187.5,90.2z"/>
<path class="st0" d="M342.9,98h-12.6l-17.7-41.6H285V98h-11.3V2h37.9c10.3,0,17.9,2.8,22.8,8.4c4.9,5.6,7.4,11.7,7.4,18.4
	c0,5.1-1.4,10-4.2,14.7c-2.8,4.7-7.3,8-13.7,10.1L342.9,98z M285,46.7h25.1c6.6,0,11.6-1.7,14.8-5.2c3.3-3.5,4.9-7.8,4.9-12.8
	c0-5.1-1.7-9-5.2-11.8c-3.4-2.8-7.8-4.2-13.1-4.2H285V46.7z"/>
<path class="st0" d="M390.9,98V2h32.2c13.6,0,24.1,4.6,31.7,13.9c7.6,9.2,11.3,20.5,11.3,33.9c0,13.6-3.7,25-11,34.3
	c-7.4,9.3-16.7,14-28,14H390.9z M403,87.8h19.5c10.3,0,18.2-3.6,23.5-10.7c5.3-7.1,8-16.5,8-28.2c0-9.5-2.5-18-7.6-25.5
	c-5.1-7.6-13.1-11.3-23.9-11.3H403V87.8z"/>
<path class="st1" d="M562.1,61.4l27,1.6c-1.3,11.8-5.6,20.8-13.1,27.1c-7.4,6.3-16.6,9.4-27.4,9.4c-13,0-23.6-4.3-31.6-12.9
	c-8-8.6-12-20.5-12-35.7c0-15.1,3.8-27.2,11.4-36.5c7.6-9.2,18.2-13.9,31.8-13.9c12.7,0,22.5,3.5,29.3,10.6c6.8,7,10.7,16.4,11.6,28
	l-27.5,1.5c0-6.4-1.2-11.1-3.7-13.9c-2.5-2.9-5.4-4.3-8.7-4.3c-9.3,0-13.9,9.3-13.9,28c0,10.5,1.2,17.6,3.6,21.3
	c2.4,3.8,5.8,5.6,10.2,5.6C556.8,77.3,561.1,72,562.1,61.4z"/>
<path class="st1" d="M679.9,98l-5.4-18.9h-25.7L643,98h-23.9L648.7,2h31.2L710,98H679.9z M653.8,58.1h15.5l-7.8-27.9L653.8,58.1z"/>
<path class="st1" d="M852.1,2V98h-27.4V29.3L807,98h-18.7l-18.5-68.7V98h-22.1V2h38.5l13.9,51l13.3-51H852.1z"/>
<path class="st1" d="M927.6,63.1V98h-29.9V2h41c10.2,0,18,1.2,23.3,3.5c5.3,2.3,9.5,5.9,12.7,10.8c3.1,4.8,4.7,10.3,4.7,16.3
	c0,9.1-3.2,16.5-9.6,22.2c-6.4,5.6-14.9,8.4-25.5,8.4H927.6z M927.2,42.5h9.9c8.7,0,13-3.2,13-9.6c0-6-4-9-12-9h-10.8V42.5z"/>
<path class="st1" d="M1097.1,2v63.6c0,12.1-3.6,20.7-10.7,26c-7.2,5.3-16.5,7.9-28,7.9c-12.1,0-21.8-2.5-29.2-7.6
	c-7.3-5.1-11-13.3-11-24.8V2h30v61.7c0,4.6,1,8,2.9,10.1c1.9,2.1,5,3.2,9.3,3.2c3.6,0,6.5-0.8,8.7-2.3c2.3-1.5,3.6-3.2,4.1-5.2
	c0.4-1.9,0.7-5.7,0.7-11.3V2H1097.1z"/>
<path class="st1" d="M1131.8,70.2l27.4-4.9c2.3,7.7,8.2,11.6,17.7,11.6c7.4,0,11.1-2,11.1-5.9c0-2.1-0.9-3.7-2.6-4.8
	c-1.7-1.2-4.8-2.2-9.2-3.1c-16.8-3.2-27.7-7.4-32.4-12.7c-4.8-5.2-7.2-11.3-7.2-18.4c0-9.1,3.4-16.6,10.3-22.6c6.9-6,16.8-9,29.7-9
	c19.6,0,32.5,7.9,38.8,23.6l-24.4,7.4c-2.5-6.4-7.7-9.6-15.4-9.6c-6.4,0-9.6,2-9.6,6c0,1.8,0.7,3.2,2.2,4.2c1.5,1,4.3,1.9,8.4,2.8
	c11.5,2.4,19.7,4.6,24.5,6.5c4.8,1.9,8.9,5.1,12.1,9.6c3.2,4.5,4.9,9.9,4.9,16c0,9.7-3.9,17.6-11.8,23.6c-7.9,6-18.2,9-31,9
	C1151.7,99.5,1137.3,89.8,1131.8,70.2z"/>
</svg>
