<svg id="Layer_1" data-name="Layer 1" xmlns="http://www.w3.org/2000/svg" viewBox="0 0 84 60"><title>Untitled-1</title><path d="M84,23q0,2.53,0,7t0,7q0,2.53-.4,6.4a52.12,52.12,0,0,1-1.06,6.91,11,11,0,0,1-3.23,5.77,9.89,9.89,0,0,1-5.81,2.72Q63.05,60,42,60T10.55,58.83a10,10,0,0,1-5.84-2.72,10.9,10.9,0,0,1-3.26-5.77,58.33,58.33,0,0,1-1-6.91Q0.1,39.56,0,37t0-7q0-4.5,0-7t0.4-6.4A52,52,0,0,1,1.5,9.66,11,11,0,0,1,4.73,3.89a9.88,9.88,0,0,1,5.81-2.72Q21,0,42,0T73.45,1.17a10,10,0,0,1,5.84,2.72,10.92,10.92,0,0,1,3.26,5.77,58.22,58.22,0,0,1,1,6.91Q83.91,20.44,84,23ZM60,30a2.7,2.7,0,0,0-1.4-2.53l-24-15a2.83,2.83,0,0,0-3-.1A2.8,2.8,0,0,0,30,15V45a2.79,2.79,0,0,0,1.55,2.63A3.2,3.2,0,0,0,33,48a2.65,2.65,0,0,0,1.59-.47l24-15A2.7,2.7,0,0,0,60,30Z"/></svg>